<?xml version="1.0" encoding="UTF-8"?>
<svg version="1.1" xmlns="http://www.w3.org/2000/svg" width="2000" height="1017">
<path d="M0 0 C660 0 1320 0 2000 0 C2000 335.61 2000 671.22 2000 1017 C1340 1017 680 1017 0 1017 C0 681.39 0 345.78 0 0 Z " fill="#FEFEFE" transform="translate(0,0)"/>
<path d="M0 0 C1.79059126 -0.00296541 3.5811803 -0.00768702 5.37176293 -0.01398599 C10.26892298 -0.02617866 15.16574714 -0.01363209 20.06288198 0.00312654 C25.39917855 0.01693156 30.735443 0.00736723 36.07174635 0.00081658 C45.41624467 -0.00745984 54.7606409 -0.00093504 64.10512733 0.01536942 C77.99993754 0.03954587 91.89468362 0.04070926 105.78951102 0.03720146 C129.16470535 0.03194994 152.53985074 0.04526682 175.91503143 0.06927109 C199.05666571 0.09297864 222.19828133 0.10837499 245.33992767 0.11268234 C246.41884133 0.11288881 246.41884133 0.11288881 247.51955122 0.11309946 C254.0892402 0.11435229 260.6589292 0.11550305 267.22861822 0.11653135 C283.55852003 0.1190886 299.88842142 0.12292569 316.21832275 0.12763214 C316.96186631 0.12784541 317.70540986 0.12805868 318.47148504 0.12827841 C354.62116683 0.13875893 390.7708363 0.16398688 426.92050934 0.1904335 C439.46178935 0.19960033 452.00306941 0.20870186 464.54434967 0.21753311 C465.7111019 0.21835481 465.7111019 0.21835481 466.90142489 0.2191931 C503.07603513 0.24457985 539.25064748 0.25947515 575.42526429 0.27167229 C577.77438849 0.27246455 580.1235127 0.27326132 582.4726369 0.27405901 C598.04069545 0.27933824 613.60875406 0.28443682 629.17681271 0.28941445 C660.15212049 0.29931988 691.12742786 0.31028659 722.10273502 0.32198263 C723.57778603 0.32253959 725.05283704 0.32309581 726.52788806 0.32365129 C810.45940541 0.35526593 894.39090925 0.40710458 1020.80478668 0.49219131 C1018.32645518 3.04551556 1015.74350789 4.97609188 1012.80478668 6.99219131 C979.25915126 31.28843649 972.51889276 69.83091552 964.81748199 107.79004288 C962.9035581 117.21250632 960.92991147 126.61457524 958.80478668 135.99219131 C956.17537614 147.60774031 953.78884722 159.26631836 951.42105865 170.93722916 C948.96888463 183.0067294 946.38604334 195.03971176 943.67978668 207.05469131 C940.90848926 219.3598734 938.31512131 231.68262955 935.87802887 244.05884171 C934.28711232 252.12760248 932.60390563 260.16881472 930.83261871 268.19971085 C929.52159658 274.1591815 928.24544618 280.12499425 926.99619293 286.09766006 C926.75469009 287.25222702 926.75469009 287.25222702 926.50830841 288.43011856 C926.17363579 290.03057678 925.83899069 291.63104074 925.50437164 293.23151016 C922.33541215 308.38170496 919.06427824 323.50528113 915.6714859 338.60693741 C913.83507195 346.79060795 912.06652896 354.98266814 910.36826324 363.19629288 C904.78338399 390.03131089 895.56383961 414.80381123 871.92197418 431.04053116 C856.12585161 441.3691057 838.54663259 447.6187698 819.52336794 447.61638981 C818.46830705 447.61830694 818.46830705 447.61830694 817.3919318 447.6202628 C815.03662515 447.62332375 812.68138568 447.61926504 810.32608128 447.61523914 C808.61249458 447.61597896 806.89890803 447.61715773 805.1853219 447.61873564 C800.46011231 447.62180818 795.73492419 447.61862661 791.0097162 447.61445751 C785.87534775 447.61102671 780.7409815 447.61339346 775.60661262 447.615035 C766.60271808 447.61711045 757.59883014 447.61546203 748.59493637 447.61139679 C735.2064157 447.60536866 721.8178992 447.60506035 708.42937742 447.60593878 C685.90916799 447.60725361 663.3889618 447.603915 640.86875343 447.59792137 C618.56538186 447.59199963 596.2620115 447.58814643 573.95863914 447.58706856 C572.91979013 447.58701694 572.91979013 447.58701694 571.85995427 447.58696428 C565.53446356 447.58665108 559.20897285 447.58636339 552.88348214 447.5861063 C537.15877129 447.5854669 521.43406046 447.58450756 505.70934963 447.58333111 C504.63522712 447.58325113 504.63522712 447.58325113 503.53940517 447.58316954 C468.70314191 447.58054779 433.86687945 447.57424014 399.03061676 447.56763077 C386.94111888 447.56533911 374.851621 447.56306375 362.76212311 447.56085587 C361.63744075 447.56065044 361.63744075 447.56065044 360.49003754 447.56044087 C325.63654531 447.5540972 290.78305294 447.55037133 255.92956028 447.54732107 C253.66694243 447.54712301 251.40432459 447.54692381 249.14170674 447.54672439 C234.14726416 447.54540461 219.15282157 447.54412996 204.15837898 447.54288553 C174.32296736 447.54040901 144.48755577 447.53766732 114.65214419 447.53474348 C113.23129285 447.53460424 111.81044152 447.53446519 110.38959018 447.53432632 C24.57481511 447.52593705 -61.23995909 447.5119823 -173.19521332 447.49219131 C-173.04574895 446.07537383 -172.89397806 444.65879957 -172.74126434 443.24232864 C-172.65700006 442.45344789 -172.57273579 441.66456713 -172.48591805 440.85178089 C-172.05219626 437.33135171 -171.34227499 433.89064628 -170.59365082 430.42578506 C-170.35819801 429.31122688 -170.35819801 429.31122688 -170.11798859 428.17415237 C-169.60637806 425.75839207 -169.08844456 423.3440392 -168.57021332 420.92969131 C-168.20657803 419.2204394 -167.84321952 417.51112859 -167.48012543 415.80176163 C-165.00073229 404.15327261 -162.46781032 392.51661216 -159.90932465 380.88525772 C-157.48635171 369.86672178 -155.11678266 358.83707045 -152.75771332 347.80469131 C-149.75779799 333.77709675 -146.74361818 319.75276436 -143.70574188 305.73334122 C-141.78379347 296.86257105 -139.87115309 287.98992121 -137.97646332 279.11328506 C-137.21611459 275.55207264 -136.45571937 271.99087015 -135.69521332 268.42969131 C-135.41120163 267.09952988 -135.41120163 267.09952988 -135.12145233 265.74249649 C-132.71713213 254.49040601 -130.26264904 243.25131831 -127.74208832 232.02472305 C-124.18851717 216.19619654 -120.841071 200.32950886 -117.55098724 184.44421768 C-114.49274783 169.67924118 -111.37736259 154.92896315 -108.17055511 140.19556046 C-107.848031 138.71371136 -107.5255213 137.23185914 -107.20302582 135.75000381 C-107.04266342 135.01340027 -106.88230103 134.27679672 -106.71707916 133.51787186 C-105.21853203 126.6230725 -103.74959579 119.7220654 -102.28179169 112.82066727 C-100.42417577 104.08994894 -98.55021059 95.36283515 -96.66005707 86.63910294 C-96.24203217 84.70842728 -95.82592366 82.77733693 -95.41005707 80.84619522 C-89.54856773 53.86241039 -78.31400569 30.67490972 -54.80458832 14.88672256 C-37.33427361 3.92550898 -20.27558756 -0.13536721 0 0 Z " fill="#001EA5" transform="translate(458.1952133178711,284.50780868530273)"/>
<path d="M0 0 C0.6928722 -0.00085442 1.38574439 -0.00170885 2.09961271 -0.00258917 C4.39647312 -0.00422223 6.69325874 0.0012414 8.9901123 0.00672913 C10.64644367 0.00701149 12.30277516 0.00685229 13.95910645 0.00628662 C18.43783977 0.00600058 22.91654613 0.01186601 27.39527321 0.01886058 C32.08244311 0.02512635 36.76961367 0.02570046 41.45678711 0.02688599 C50.32468484 0.02998981 59.19257019 0.03819038 68.06046247 0.04823548 C78.15960772 0.05942611 88.25875357 0.06491449 98.35790348 0.06993091 C119.12528728 0.0803738 139.89265995 0.09795484 160.66003418 0.12025452 C160.35819876 2.31937833 160.0528084 4.51801435 159.74597168 6.71644592 C159.57629883 7.94086395 159.40662598 9.16528198 159.23181152 10.42680359 C158.33987058 16.18838221 157.00299712 21.82496653 155.66003418 27.49525452 C152.44383285 41.32633085 149.52843771 55.21338042 146.66003418 69.12025452 C143.64779864 83.71062052 140.54960025 98.26706684 137.2052002 112.78504944 C134.83899589 123.13554089 132.70555598 133.52711546 130.59753418 143.93275452 C128.41308043 154.71514996 126.18892195 165.47456296 123.66003418 176.18275452 C121.21338355 186.54783841 118.96795803 196.9471329 116.78503418 207.37025452 C116.61648926 208.17470001 116.44794434 208.97914551 116.27429199 209.80796814 C115.23836775 214.75580131 114.20578492 219.7043277 113.17431641 224.65309143 C111.67382809 231.85137518 110.16972629 239.04889525 108.66003418 246.24525452 C108.49455078 247.03446289 108.32906738 247.82367126 108.15856934 248.63679504 C105.63205848 260.67056134 102.99157166 272.67560529 100.29580688 284.67243958 C97.49165154 297.17196245 94.8442478 309.70115802 92.24530029 322.24485779 C91.60162495 325.35051702 90.95610484 328.45578692 90.30993652 331.56092834 C90.10030273 332.56848679 89.89066895 333.57604523 89.67468262 334.61413574 C89.25837282 336.61492555 88.84203203 338.61570891 88.42565918 340.6164856 C87.48882028 345.12137798 86.5548265 349.62678812 85.63122559 354.13441467 C84.87472619 357.82499963 84.10566334 361.5127257 83.32608032 365.19850159 C82.93042746 367.08549264 82.54863429 368.97537403 82.16760254 370.8653717 C77.03308478 394.93120619 64.14757715 418.28662819 43.16003418 431.99525452 C41.34236192 433.0640146 39.50866523 434.10598445 37.66003418 435.12025452 C36.71515137 435.65263733 35.77026855 436.18502014 34.79675293 436.73353577 C27.38527796 440.68959459 19.83533274 443.22901826 11.66003418 445.12025452 C10.97480525 445.28969007 10.28957632 445.45912563 9.58358288 445.6336956 C0.10715229 447.68995256 -9.39741874 447.38592709 -19.03991699 447.3473053 C-21.02180984 447.34674039 -23.0037031 447.3470593 -24.9855957 447.34819031 C-30.33811653 447.3487617 -35.69054683 447.33704202 -41.04304671 447.32304239 C-46.64708603 447.31049937 -52.25112765 447.30936172 -57.85517883 447.30699158 C-68.45483142 447.30078729 -79.05444252 447.28439072 -89.65407687 447.2642926 C-101.72664785 447.24190084 -113.79922086 447.23093194 -125.87180746 447.22090173 C-150.69454987 447.20002354 -175.51725552 447.16486805 -200.33996582 447.12025452 C-197.80346406 444.5107566 -195.13085905 442.47067288 -192.15246582 440.37025452 C-171.12441962 425.1097433 -158.506765 403.63143771 -151.97668457 378.62025452 C-151.76378784 377.80692154 -151.55089111 376.99358856 -151.33154297 376.15560913 C-148.63075155 365.62047654 -146.50237575 354.96353626 -144.33996582 344.30775452 C-143.50975499 340.23809993 -142.67621222 336.16914184 -141.83996582 332.10072327 C-141.63629898 331.10864365 -141.43263214 330.11656403 -141.22279358 329.09442139 C-139.58071895 321.15359122 -137.81641862 313.24385449 -135.98974609 305.34356689 C-134.88246431 300.55211636 -133.83882055 295.76062607 -132.90246582 290.93275452 C-131.55904687 284.02591134 -130.01382166 277.17117927 -128.46496582 270.30775452 C-126.47337384 261.45813234 -124.62657065 252.60003377 -122.96496582 243.68275452 C-121.05671856 233.48336763 -118.874766 223.36503135 -116.58996582 213.24525452 C-113.46028911 199.38252162 -110.53469038 185.48677765 -107.71496582 171.55775452 C-105.10242391 158.65315148 -102.42588675 145.77683211 -99.50524902 132.93788147 C-97.63805326 124.65489549 -95.97923182 116.33945549 -94.34713745 108.00788879 C-84.4961951 57.88308144 -84.4961951 57.88308144 -75.33996582 43.12025452 C-74.76375488 42.18826233 -74.18754395 41.25627014 -73.59387207 40.29603577 C-60.48267335 20.52325802 -41.72208069 7.50665141 -18.83996582 1.81166077 C-12.51760695 0.56271264 -6.43999863 -0.00482036 0 0 Z " fill="#FD0000" transform="translate(1551.3399658203125,284.87974548339844)"/>
<path d="M0 0 C20.21119455 -0.02342553 40.42238631 -0.04102641 60.63359165 -0.05181217 C70.0193229 -0.05695469 79.40504568 -0.06395819 88.79077148 -0.07543945 C96.97734726 -0.08544901 105.16391689 -0.09186827 113.35049862 -0.09408849 C117.6797699 -0.095385 122.00902364 -0.09840308 126.33828926 -0.10573006 C130.42498533 -0.11258954 134.51165687 -0.11459707 138.59835815 -0.11310768 C140.08689953 -0.1133796 141.57544185 -0.11532519 143.0639782 -0.11920547 C170.55777485 -0.18727366 197.6280264 1.82503968 218.6796875 21.58984375 C232.15455261 35.5864629 234.59398155 51.19415968 234.34375 69.84765625 C234.04805901 77.88182688 232.16830618 84.66065244 229 92 C228.5771875 92.98871094 228.154375 93.97742188 227.71875 94.99609375 C219.51022121 111.81880537 203.13679691 124.43926239 185.85742188 130.78710938 C177.97726941 133.4878841 170.41282594 135.76480236 162 135 C162 135.66 162 136.32 162 137 C163.051875 137.061875 164.10375 137.12375 165.1875 137.1875 C180.01133034 139.09603548 195.21565254 147.93796548 204.74365234 159.30615234 C215.51216763 173.82460533 218.04774755 190.75565709 215.67919922 208.38818359 C212.33800125 226.5638134 203.86637945 241.89929907 191 255 C190.26265625 255.76183594 189.5253125 256.52367187 188.765625 257.30859375 C178.52336517 267.22433858 165.43491513 273.5685882 152 278 C151.15953125 278.28359375 150.3190625 278.5671875 149.453125 278.859375 C143.48670313 280.67524252 137.40113921 281.67080344 131.25 282.625 C130.46488037 282.7482666 129.67976074 282.8715332 128.87084961 282.99853516 C116.51588233 284.80256249 104.095899 285.14977479 91.62915039 285.11352539 C90.26734926 285.11324227 88.90554799 285.11340368 87.54374695 285.1139679 C83.90010945 285.114251 80.25650589 285.10843416 76.61287618 285.10139394 C72.78524915 285.09507823 68.95762106 285.09455018 65.12998962 285.09336853 C57.90562446 285.09027917 50.6812747 285.08209857 43.45691627 285.07201904 C35.22214441 285.06078288 26.98737175 285.05532867 18.75259411 285.05032361 C1.83505388 285.03991355 -15.08247142 285.02236123 -32 285 C-31.20300833 281.0127512 -30.40584042 277.02553766 -29.60864258 273.03833008 C-29.38473091 271.91811714 -29.16081924 270.79790421 -28.93012238 269.64374542 C-27.1994081 260.98819328 -25.4606634 252.33447548 -23.6875 243.6875 C-23.54448456 242.98998627 -23.40146912 242.29247253 -23.25411987 241.57382202 C-20.81678392 229.71267173 -18.21738276 217.89202495 -15.55996704 206.07849121 C-12.67255485 193.22682357 -9.98598703 180.34040152 -7.36651611 167.43170166 C-5.09876311 156.26187313 -2.73133137 145.12334664 -0.21826172 134.00561523 C1.80029377 125.02584117 3.66195857 116.0180042 5.5 107 C7.6191376 96.60382848 9.80075023 86.22779067 12.125 75.875 C12.84604167 72.64688537 13.56663499 69.41867097 14.28710938 66.19042969 C14.77117859 64.02405416 15.2569134 61.85805027 15.74414062 59.69238281 C16.46620415 56.46405392 17.17238998 53.23261134 17.875 50 C18.09043457 49.05108887 18.30586914 48.10217773 18.52783203 47.12451172 C20.73844728 36.81135973 21.29355472 27.42728566 16 18 C11.88373517 11.93488412 7.13520044 6.90857728 1.46875 2.27734375 C0.9840625 1.85582031 0.499375 1.43429687 0 1 C0 0.67 0 0.34 0 0 Z " fill="#FEFEFE" transform="translate(480,366)"/>
<path d="M0 0 C7.07690974 0.30453995 14.15458244 0.45092404 21.23643261 0.58598816 C35.78003289 0.8668124 50.31338305 1.34039203 64.84709793 1.94472551 C64.43395844 2.4258832 64.02081894 2.90704088 63.59516007 3.4027791 C63.05382935 4.03367952 62.51249863 4.66457994 61.95476395 5.31459856 C61.41787445 5.94013124 60.88098496 6.56566393 60.32782608 7.21015215 C57.65179674 10.34494041 55.16950863 13.53893824 52.84709793 16.94472551 C52.35596512 17.6601552 51.86483231 18.37558489 51.35881668 19.11269426 C44.21981167 31.11828861 48.15938008 47.18028495 50.37444168 60.25722551 C50.64249231 61.89756558 50.90938869 63.53809462 51.17522293 65.17879534 C51.88430808 69.5364195 52.60849488 73.89140343 53.33566529 78.24604082 C54.09246664 82.79542755 54.83459389 87.34720494 55.57781082 91.89882708 C56.76938945 99.18795397 57.96790228 106.47590334 59.17131668 113.76308489 C61.23264456 126.25296601 63.23703617 138.7516893 65.23403031 151.25200701 C66.13376233 156.87806262 67.03920715 162.50319716 67.94475418 168.12831926 C68.11157196 169.16482119 68.27838974 170.20132311 68.45026261 171.26923418 C68.91574583 174.16108534 69.38138235 177.05291176 69.84709793 179.94472551 C69.9799318 180.76966509 70.11276566 181.59460466 70.24962479 182.44454241 C71.07179238 187.54909271 71.89590038 192.65332593 72.72209793 197.75722551 C72.83111435 198.43102251 72.94013077 199.10481951 73.05245072 199.7990346 C74.77462362 210.43360573 76.52498166 221.06349653 78.27958924 231.69275522 C78.65944907 233.9946047 79.03899592 236.29650554 79.41841751 238.5984273 C79.54443785 239.36298078 79.67045819 240.12753426 79.80029732 240.91525602 C80.05624176 242.46813054 80.31216846 244.02100797 80.56807762 245.5738883 C81.33274087 250.21259317 82.09971526 254.85090885 82.86833435 259.48895979 C83.35024736 262.39991697 83.8301832 265.31119772 84.30962235 268.22256327 C84.53640255 269.59699473 84.76403328 270.97128615 84.99254471 272.34543085 C85.30808334 274.24356106 85.62039642 276.14222663 85.93254715 278.04091692 C86.10986374 279.11290331 86.28718033 280.1848897 86.46987015 281.28936052 C86.84709793 283.94472551 86.84709793 283.94472551 86.84709793 286.94472551 C61.76709793 286.94472551 36.68709793 286.94472551 10.84709793 286.94472551 C9.11459793 273.51785051 9.11459793 273.51785051 7.34709793 259.81972551 C6.98164871 257.00296282 6.6161995 254.18620012 6.23967606 251.28408098 C5.95226713 249.04339673 5.66513879 246.80267646 5.37834793 244.56191301 C5.22720536 243.40505999 5.07606278 242.24820696 4.92034012 241.05629778 C4.77822098 239.94037249 4.63610184 238.82444719 4.48967606 237.67470598 C4.30314469 236.22908785 4.30314469 236.22908785 4.112845 234.75426531 C3.8361963 231.82947087 3.84709793 228.88257455 3.84709793 225.94472551 C-33.11290207 225.94472551 -70.07290207 225.94472551 -108.15290207 225.94472551 C-108.81290207 227.59472551 -109.47290207 229.24472551 -110.15290207 230.94472551 C-110.84268147 232.30925003 -111.55797436 233.66115922 -112.29743332 234.99941301 C-112.72048752 235.7676137 -113.14354172 236.53581438 -113.57941574 237.32729387 C-114.03679123 238.14979631 -114.49416672 238.97229876 -114.96540207 239.81972551 C-115.44533615 240.68670061 -115.92527023 241.55367571 -116.41974777 242.44692278 C-117.99267153 245.28222193 -119.57178604 248.1139872 -121.15290207 250.94472551 C-121.70043136 251.92586321 -122.24796066 252.9070009 -122.81208175 253.91787004 C-124.48384577 256.90844848 -126.16096264 259.89595143 -127.84040207 262.88222551 C-128.34998459 263.79149797 -128.85956711 264.70077044 -129.38459152 265.63759661 C-130.38069166 267.40155375 -131.39764534 269.15394846 -132.43814987 270.89208269 C-134.22122616 273.93611161 -134.22122616 273.93611161 -135.57644027 277.29048967 C-137.49379979 281.3035436 -138.98852288 283.79254446 -142.15290207 286.94472551 C-148.25835058 288.77280036 -154.1175153 288.46733228 -160.43415207 288.21425676 C-162.21626948 288.18998273 -163.99847418 288.1714906 -165.78070968 288.15851641 C-170.45200773 288.10908295 -175.11797552 287.98160301 -179.78717941 287.83736467 C-184.55939494 287.70391096 -189.33247993 287.64490804 -194.10602707 287.57949114 C-203.45731649 287.44043611 -212.80466467 287.21884396 -222.15290207 286.94472551 C-221.21574473 285.21742357 -220.27744988 283.49073878 -219.33869308 281.76430559 C-218.55511177 280.32188242 -218.55511177 280.32188242 -217.75570053 278.85031939 C-215.29427928 274.38819225 -212.6982286 270.00987973 -210.09040207 265.63222551 C-208.94321596 263.69866184 -207.79608202 261.76506721 -206.64899582 259.83144426 C-206.06875656 258.85481829 -205.4885173 257.87819231 -204.89069504 256.87197161 C-202.13729202 252.23396906 -199.39547503 247.58913728 -196.65290207 242.94472551 C-195.56571732 241.10484936 -194.47847768 239.26500564 -193.39118332 237.42519426 C-191.26311881 233.82390348 -189.1355433 230.22232451 -187.00837082 226.62050676 C-180.72314033 215.97917594 -174.42808381 205.34371413 -168.12598556 194.71236467 C-161.98456873 184.35176557 -155.8542135 173.98467578 -149.72956222 163.61415911 C-147.03808793 159.05724058 -144.34542527 154.50102432 -141.65290207 149.94472551 C-140.56956325 148.11139542 -139.48622991 146.27806209 -138.40290207 144.44472551 C-118.90290207 111.44472551 -118.90290207 111.44472551 -117.27887863 108.6964345 C-116.19222432 106.85744341 -115.1056361 105.01841327 -114.019113 103.17934465 C-111.36212269 98.68225736 -108.70410424 94.18578555 -106.04352707 89.69081926 C-100.1800701 79.78135725 -94.34076855 69.85818231 -88.52359909 59.92150164 C-75.41644213 37.53300848 -75.41644213 37.53300848 -72.52497238 33.28603411 C-70.36053157 29.77566159 -69.40432639 26.35165871 -68.34650558 22.37758684 C-58.33808985 -7.93896425 -26.42041067 -1.15724751 0 0 Z " fill="#FDFDFE" transform="translate(1165.1529020667076,364.05527448654175)"/>
<path d="M0 0 C1.08780762 0.17128418 2.17561523 0.34256836 3.29638672 0.51904297 C16.25741101 2.59831963 28.55364807 5.91077829 40.9375 10.1875 C41.58108459 10.40964172 42.22466919 10.63178345 42.88775635 10.86065674 C53.58974735 14.58974735 53.58974735 14.58974735 56 17 C47.24616475 32.61147725 38.05252841 47.93184393 28.71069336 63.1953125 C27.12825389 65.78972731 25.55986543 68.39196472 24 71 C19.41360994 69.65227518 15.74575385 67.75785507 11.6875 65.25 C6.39084026 62.10447961 1.06131699 59.66742781 -4.75 57.625 C-5.75800659 57.26776855 -5.75800659 57.26776855 -6.78637695 56.90332031 C-17.12703601 53.42253016 -26.98331705 52.61166297 -37.875 52.625 C-38.55575592 52.62487915 -39.23651184 52.6247583 -39.93789673 52.62463379 C-51.65749006 52.65416845 -62.68832016 53.84613358 -74 57 C-75.09441406 57.28875 -76.18882812 57.5775 -77.31640625 57.875 C-90.17817444 61.71126641 -101.96914561 68.12943101 -112 77 C-112.6084375 77.46664062 -113.216875 77.93328125 -113.84375 78.4140625 C-133.80886836 93.9324045 -141.87628086 122.13655523 -145 146 C-146.91951997 167.64930913 -144.46455977 189.11287019 -130.8671875 206.76953125 C-117.23347119 222.61219462 -97.92246127 231.61139371 -77.1262207 233.22265625 C-46.02390208 234.43937287 -16.9296277 225.82723829 11.20703125 213.11474609 C14 212 14 212 17 212 C12.6973426 219.38559057 8.39035949 226.76865196 4.08026123 234.14990234 C3.35479401 235.39236589 2.62941275 236.63487964 1.90411377 237.87744141 C-0.32345382 241.69353138 -2.55276703 245.50859309 -4.78421021 249.32241821 C-5.4994703 250.54540231 -6.21423004 251.76867921 -6.92843628 252.99227905 C-9.27039016 257.00396124 -11.62881702 261.00549077 -14 265 C-14.35394836 265.59895081 -14.70789673 266.19790161 -15.0725708 266.81500244 C-16.13469576 268.60649897 -17.20649921 270.39183679 -18.28125 272.17578125 C-18.90837891 273.22290283 -19.53550781 274.27002441 -20.18164062 275.34887695 C-22.89327078 279.30236673 -25.62200469 281.19687178 -30 283 C-31.01964844 283.42539062 -32.03929687 283.85078125 -33.08984375 284.2890625 C-46.95698686 289.62377897 -61.50643598 292.12635513 -76.3359375 292.203125 C-77.21416168 292.20882507 -78.09238586 292.21452515 -78.9972229 292.22039795 C-80.85116391 292.22979788 -82.70512124 292.23636187 -84.55908203 292.24023438 C-87.33267219 292.24985321 -90.10549214 292.28088851 -92.87890625 292.3125 C-107.95132705 292.40283107 -122.47709139 290.86701112 -136.9375 286.375 C-137.75613525 286.12339111 -138.57477051 285.87178223 -139.41821289 285.61254883 C-170.70144403 275.56011206 -194.78514886 255.20962896 -210.1875 226.25 C-215.32131941 215.52728577 -218.6990291 204.07114854 -221.3125 192.5 C-221.47186035 191.79536621 -221.6312207 191.09073242 -221.79541016 190.36474609 C-230.68617049 148.53798275 -220.23216448 101.72199834 -197.1015625 66.07421875 C-171.29074595 29.6756999 -134.36251652 6.04771985 -90.2890625 -1.46191406 C-60.186956 -6.18321329 -29.95306875 -4.98317322 0 0 Z " fill="#FDFDFE" transform="translate(941,364)"/>
<path d="M0 0 C0.88214676 -0.00960754 1.76429352 -0.01921509 2.673172 -0.02911377 C3.63655991 -0.03336365 4.59994781 -0.03761353 5.5925293 -0.04199219 C7.07924385 -0.0505423 7.07924385 -0.0505423 8.59599304 -0.05926514 C10.70526049 -0.06873927 12.8145429 -0.07525864 14.92382812 -0.07910156 C18.11510234 -0.08871166 21.30570597 -0.11967142 24.49682617 -0.15136719 C40.01662218 -0.23299772 52.09206246 0.39575792 64.60424805 10.34863281 C71.30845228 18.7288881 71.76681903 27.72853119 70.85424805 38.16113281 C69.16175799 48.42797332 63.79205344 56.54591293 55.38549805 62.59863281 C38.99343468 72.71719045 20.99174017 72.58275281 2.41674805 72.34863281 C0.31714834 72.33354878 -1.78246192 72.319867 -3.88208008 72.30761719 C-8.97023677 72.27492931 -14.05787425 72.22335521 -19.14575195 72.16113281 C-18.65549838 66.49564576 -18.04041508 61.00314731 -16.7277832 55.45800781 C-16.44563965 54.24387207 -16.16349609 53.02973633 -15.87280273 51.77880859 C-15.4201001 49.86430908 -15.4201001 49.86430908 -14.95825195 47.91113281 C-14.32127303 45.17539963 -13.6908493 42.43820243 -13.0637207 39.70019531 C-12.82413635 38.65452896 -12.82413635 38.65452896 -12.57971191 37.58773804 C-10.52721042 28.54680335 -8.76264098 19.44720654 -7.01220703 10.34375 C-6.66452271 8.55565918 -6.66452271 8.55565918 -6.30981445 6.73144531 C-6.1082373 5.67715332 -5.90666016 4.62286133 -5.69897461 3.53662109 C-4.80020878 -0.32259845 -3.70001015 0.03244049 0 0 Z " fill="#021FA5" transform="translate(552.145751953125,526.8388671875)"/>
<path d="M0 0 C0.33 0 0.66 0 1 0 C4.68028731 27.71083445 7.92924372 55.46132338 11.01531982 83.24427795 C11.53253676 87.88808306 12.05834817 92.53024105 12.61962891 97.16894531 C12.76142326 98.34337692 12.76142326 98.34337692 12.90608215 99.54153442 C13.15497051 101.58679823 13.40798569 103.63155872 13.66137695 105.67626953 C14 109 14 109 14 114 C-11.08 114 -36.16 114 -62 114 C-61.04797299 110.19189195 -59.82349967 107.5491762 -57.97265625 104.1171875 C-57.35068359 102.95952881 -56.72871094 101.80187012 -56.08789062 100.60913086 C-55.41296499 99.36430964 -54.7378301 98.11960184 -54.0625 96.875 C-53.37020239 95.5920079 -52.6781467 94.30888523 -51.98632812 93.02563477 C-47.18603415 84.13437805 -42.31862381 75.2818529 -37.37988281 66.46679688 C-34.53422627 61.37965715 -31.70603713 56.28278477 -28.875 51.1875 C-28.24674316 50.05779785 -27.61848633 48.9280957 -26.97119141 47.76416016 C-23.51838122 41.55118759 -20.07855906 35.33139027 -16.65625 29.1015625 C-15.93376392 27.7875122 -15.21127049 26.47346594 -14.48876953 25.15942383 C-13.11217102 22.65545422 -11.73860486 20.1498537 -10.36669922 17.64331055 C-7.07328919 11.65095817 -3.78150965 5.70037978 0 0 Z " fill="#0321A6" transform="translate(1149,423)"/>
<path d="M0 0 C5.90408544 -0.0997571 11.80766757 -0.17188395 17.71240234 -0.21972656 C19.71607014 -0.2396956 21.71968078 -0.26688063 23.72314453 -0.30175781 C50.27474053 -0.75200932 50.27474053 -0.75200932 61.3125 8.28515625 C67.74829035 14.82523024 69.38849131 21.66894068 69.453125 30.59545898 C69.26461469 38.68055745 66.46557322 44.98645152 61.171875 51.1171875 C46.50742495 65.00668694 26.46544498 65.60362131 7.5 65.25 C5.59767535 65.22987645 3.6953298 65.21163617 1.79296875 65.1953125 C-2.80521661 65.15184462 -7.40236814 65.08315138 -12 65 C-11.62417684 53.71214404 -9.00544136 42.91884025 -6.5625 31.9375 C-5.74831015 28.23893461 -4.93822838 24.53947697 -4.12890625 20.83984375 C-3.93720856 19.96693695 -3.74551086 19.09403015 -3.54800415 18.19467163 C-2.22831176 12.15187728 -1.03338638 6.09880663 0 0 Z " fill="#011FA5" transform="translate(571,415)"/>
<path d="M0 0 C51.81 0 103.62 0 157 0 C157 0.33 157 0.66 157 1 C137.10309011 1.13050284 117.20617949 1.26089397 97.309268 1.39115143 C88.07116855 1.45163234 78.83306935 1.51215007 69.5949707 1.57275391 C61.54475016 1.62556492 53.49452916 1.67830743 45.44430763 1.73096704 C41.18026021 1.75886224 36.91621302 1.78679216 32.65216637 1.81480408 C28.64102609 1.84115349 24.62988523 1.86741149 20.6187439 1.89359856 C19.14451386 1.90323945 17.67028404 1.91291411 16.19605446 1.92262459 C14.18711531 1.93585211 12.17817529 1.94894773 10.16923523 1.96203613 C8.48097138 1.97309765 8.48097138 1.97309765 6.75860119 1.98438263 C4.83909116 1.99524962 2.91954079 2 1 2 C0.67 1.34 0.34 0.68 0 0 Z " fill="#D1D6F1" transform="translate(480,366)"/>
<path d="M0 0 C-0.33 0.99 -0.66 1.98 -1 3 C-0.67 4.32 -0.34 5.64 0 7 C-5.28 5.68 -10.56 4.36 -16 3 C-16 2.34 -16 1.68 -16 1 C-14.0852312 0.63571223 -12.16807707 0.28394694 -10.25 -0.0625 C-9.18265625 -0.25972656 -8.1153125 -0.45695312 -7.015625 -0.66015625 C-4.25228095 -0.97156937 -2.59053383 -0.8991416 0 0 Z " fill="#203AB1" transform="translate(658,500)"/>
<path d="M0 0 C0 4.02197773 -1.2932859 5.07959795 -4 8 C-5.010625 8.66 -6.02125 9.32 -7.0625 10 C-10.13058072 11.77955641 -10.13058072 11.77955641 -11.5625 14.6875 C-13 17 -13 17 -15.5625 17.9375 C-16.366875 17.958125 -17.17125 17.97875 -18 18 C-18.66 17.34 -19.32 16.68 -20 16 C-19.14277344 15.43152344 -18.28554687 14.86304688 -17.40234375 14.27734375 C-10.99058765 9.96755707 -5.24663511 5.73469419 0 0 Z " fill="#ECF0F6" transform="translate(1343,703)"/>
<path d="M0 0 C2 3 2 3 2 5 C0.52460414 6.24588984 -0.95449544 7.48812639 -2.46484375 8.69140625 C-4.3047996 10.25981645 -5.66183579 11.99275368 -7 14 C-7.66 13.67 -8.32 13.34 -9 13 C-7.68889201 11.01989841 -6.37618664 9.04088963 -5.0625 7.0625 C-4.50272461 6.21655273 -4.50272461 6.21655273 -3.93164062 5.35351562 C-1.11328125 1.11328125 -1.11328125 1.11328125 0 0 Z " fill="#E6EAF4" transform="translate(1451,310)"/>
<path d="M0 0 C0.66 0.33 1.32 0.66 2 1 C2 3 2 3 -0.3125 5.625 C-3 8 -3 8 -6 8 C-6.66 7.34 -7.32 6.68 -8 6 C-5.36 4.02 -2.72 2.04 0 0 Z " fill="#F7F8F8" transform="translate(636,462)"/>
<path d="M0 0 C1.65 1.65 3.3 3.3 5 5 C4.34 5 3.68 5 3 5 C3 5.66 3 6.32 3 7 C3.66 7.33 4.32 7.66 5 8 C3.68 8 2.36 8 1 8 C-0.75 5.5 -0.75 5.5 -2 3 C-1.34 3 -0.68 3 0 3 C0 2.01 0 1.02 0 0 Z " fill="#F0F2F5" transform="translate(696,386)"/>
<path d="M0 0 C1.75 0.125 1.75 0.125 4 1 C6.25 4.0625 6.25 4.0625 8 7 C5.69 7 3.38 7 1 7 C1.33 5.68 1.66 4.36 2 3 C1.34 3 0.68 3 0 3 C0 2.01 0 1.02 0 0 Z " fill="#0A26A7" transform="translate(743,612)"/>
<path d="M0 0 C0.99 0.66 1.98 1.32 3 2 C3 2.66 3 3.32 3 4 C2.34 4 1.68 4 1 4 C0.7525 4.639375 0.505 5.27875 0.25 5.9375 C-1 8 -1 8 -5 9 C-3.35 6.03 -1.7 3.06 0 0 Z " fill="#ECF0F5" transform="translate(1023,515)"/>
<path d="M0 0 C2.475 0.495 2.475 0.495 5 1 C3.68 3.31 2.36 5.62 1 8 C0.67 8 0.34 8 0 8 C0 5.36 0 2.72 0 0 Z " fill="#F0F4F7" transform="translate(699,465)"/>
<path d="M0 0 C0.99 0.33 1.98 0.66 3 1 C2 4 2 4 -1 6 C-1.33 6.66 -1.66 7.32 -2 8 C-2.66 7.01 -3.32 6.02 -4 5 C-2.68 3.35 -1.36 1.7 0 0 Z " fill="#F3F7F7" transform="translate(617,579)"/>
<path d="M0 0 C-1.39332574 3.36720387 -2.9789286 4.9859524 -6 7 C-6.66 6.67 -7.32 6.34 -8 6 C-7.0479279 4.99403703 -6.08812654 3.99538437 -5.125 3 C-4.59132813 2.443125 -4.05765625 1.88625 -3.5078125 1.3125 C-2 0 -2 0 0 0 Z " fill="#F4F6F8" transform="translate(1463,299)"/>
</svg>
