<?xml version="1.0" encoding="UTF-8"?>
<svg version="1.1" xmlns="http://www.w3.org/2000/svg" width="1636" height="554">
<path d="M0 0 C1.47063702 -0.00476599 1.47063702 -0.00476599 2.97098387 -0.00962826 C6.24657751 -0.01781969 9.52198736 -0.01184761 12.79758358 -0.00591189 C15.18372746 -0.00890961 17.56987038 -0.01278048 19.95601159 -0.01744422 C25.15525085 -0.02558688 30.35445449 -0.02753073 35.55369735 -0.02400994 C43.33727827 -0.01877208 51.12082126 -0.02505004 58.90439782 -0.03352342 C72.17131744 -0.04762102 85.43822515 -0.05219149 98.70515156 -0.05155188 C112.14927994 -0.05092989 125.59339676 -0.05461301 139.03752232 -0.06353194 C139.88679627 -0.06409172 140.73607023 -0.06465151 141.61107976 -0.06522826 C145.07007931 -0.06751991 148.52907884 -0.06983827 151.98807834 -0.07219155 C188.0718898 -0.09670022 224.15569654 -0.10685748 260.23951536 -0.11171871 C264.12354887 -0.11224241 268.00758237 -0.11276825 271.89161587 -0.11329538 C272.85544986 -0.11342444 273.81928385 -0.1135535 274.81232494 -0.11368647 C296.17122897 -0.11659216 317.53013168 -0.12275074 338.88903484 -0.12939269 C347.68405918 -0.13211616 356.47908356 -0.13474722 365.27410793 -0.13737833 C366.73177627 -0.1378147 366.73177627 -0.1378147 368.21889245 -0.13825989 C423.90797926 -0.15488285 479.59706543 -0.16673999 535.28615475 -0.1691733 C537.37028074 -0.16926793 539.45440674 -0.16936294 541.53853273 -0.16945833 C550.94817655 -0.16988608 560.35782037 -0.17029145 569.76746419 -0.17069669 C573.96345677 -0.17087829 578.15944936 -0.17106318 582.35544194 -0.17124876 C584.45561215 -0.17134078 586.55578235 -0.17143118 588.65595256 -0.17151995 C655.06181399 -0.17433422 721.46764506 -0.19606126 787.87349606 -0.23291022 C837.39675483 -0.26038571 886.92000779 -0.28627041 936.4432745 -0.29285532 C937.44024646 -0.29298876 938.43721843 -0.2931222 939.46440166 -0.29325968 C961.35088218 -0.29613206 983.23736258 -0.29754924 1005.12384328 -0.29761789 C1012.95535465 -0.29765757 1020.78686603 -0.29781452 1028.6183774 -0.29803241 C1030.56665031 -0.29808605 1032.51492323 -0.29813417 1034.46319615 -0.29817673 C1065.50068679 -0.29892005 1096.53814748 -0.31458211 1127.57562876 -0.33778804 C1158.83915531 -0.36106003 1190.10264332 -0.36828272 1221.3661763 -0.35360717 C1225.6884728 -0.35157956 1230.01076936 -0.34972561 1234.33306599 -0.34797484 C1235.60396909 -0.34744975 1235.60396909 -0.34744975 1236.900547 -0.34691406 C1250.30376492 -0.34183198 1263.70691337 -0.35351415 1277.11011699 -0.37221939 C1290.29708874 -0.390272 1303.48396077 -0.39041572 1316.67093259 -0.37165707 C1324.39669045 -0.36119924 1332.12214982 -0.36429386 1339.84788073 -0.38777583 C1345.59316596 -0.40369808 1351.33817067 -0.39334914 1357.08343103 -0.3730322 C1359.3860989 -0.36889035 1361.68880131 -0.37304325 1363.99143223 -0.38672988 C1389.14188878 -0.52626838 1410.99677246 4.99165587 1430.7108984 21.25415033 C1431.35285152 21.78266596 1431.99480465 22.31118158 1432.6562109 22.85571283 C1442.60717144 31.91421054 1449.57750626 45.8364099 1450.25519466 59.29339594 C1450.27603054 61.37755252 1450.26804907 63.46215843 1450.23409176 65.54614252 C1450.22291537 66.67333074 1450.21173899 67.80051897 1450.20022392 68.96186441 C1449.92861196 80.48728992 1447.85972542 91.36961756 1445.33980465 102.58227533 C1444.86876919 104.77292586 1444.40017278 106.96410199 1443.93378353 109.1557464 C1442.93373042 113.83074347 1441.9173796 118.50176072 1440.88741207 123.17025751 C1439.22574421 130.70271436 1437.60176234 138.2430234 1435.98238277 145.78466791 C1433.84780109 155.71262324 1431.7014078 165.63791976 1429.54417205 175.56097609 C1426.20453508 190.92599595 1422.92412593 206.303163 1419.67574215 221.68774408 C1419.30868979 223.42569081 1419.30868979 223.42569081 1418.93422222 225.19874758 C1417.9413845 229.90035035 1416.94884292 234.60201544 1415.95686436 239.30379957 C1413.42363956 251.30938212 1410.87771233 263.31226138 1408.33107281 275.31500429 C1406.97595898 281.70217846 1405.62138445 288.08946696 1404.26705074 294.47680658 C1404.12727283 295.13602645 1403.98749491 295.79524632 1403.8434813 296.47444254 C1400.51789299 312.15936486 1397.19809493 327.84551248 1393.87819326 343.53163922 C1392.59910281 349.57508261 1391.31974883 355.61847017 1390.04021358 361.6618194 C1389.76934529 362.94115298 1389.76934529 362.94115298 1389.49300492 364.24633169 C1388.58290002 368.54478093 1387.67276009 372.84322274 1386.76259708 377.14165968 C1384.80370804 386.39314753 1382.84560004 395.64480003 1380.88847333 404.89666086 C1379.54273597 411.25792795 1378.1959703 417.61897682 1376.84846514 423.97986966 C1376.06851891 427.66176165 1375.28899587 431.34374175 1374.51071262 435.02598566 C1372.85324489 442.86664608 1371.18689068 450.70530131 1369.50570202 458.5409202 C1368.96832092 461.05150223 1368.43397531 463.56273562 1367.9024229 466.0745582 C1367.12136838 469.76039601 1366.3289729 473.44362965 1365.53389645 477.12646478 C1365.30596055 478.21313283 1365.07802465 479.29980087 1364.84318161 480.41939825 C1361.85961536 494.0902255 1356.33858666 505.98806697 1346.7108984 516.25415033 C1345.88847652 517.15520502 1345.06605465 518.05625971 1344.2187109 518.98461908 C1324.05933219 540.16657498 1293.57239331 553.2071702 1264.36632543 554.34553472 C1261.84239835 554.3817363 1259.32031141 554.38715494 1256.79613304 554.38065016 C1255.34979041 554.38293998 1255.34979041 554.38293998 1253.87422874 554.38527607 C1250.64182685 554.38917419 1247.40947177 554.38596067 1244.17706966 554.38278478 C1241.82676102 554.38413142 1239.4764526 554.3859153 1237.12614459 554.38809702 C1231.32368769 554.3923374 1225.521244 554.39192064 1219.71878633 554.38956998 C1212.71918081 554.38699946 1205.71958097 554.39026153 1198.71997624 554.39368978 C1185.63853279 554.39992504 1172.55709264 554.40139567 1159.47564793 554.40027231 C1146.21774152 554.39914813 1132.95983793 554.40018098 1119.70193195 554.40384477 C1118.44610388 554.40418925 1118.44610388 554.40418925 1117.16490554 554.40454069 C1113.75505798 554.40548233 1110.34521043 554.40643801 1106.93536289 554.40741188 C1071.35580501 554.41755871 1035.77624871 554.42061796 1000.19668955 554.42120399 C996.36635554 554.42126874 992.53602153 554.42133668 988.70568752 554.4214074 C987.27993947 554.42143291 987.27993947 554.42143291 985.82538844 554.42145893 C964.76592238 554.42186732 943.70645663 554.42405704 922.64699074 554.42656325 C913.97638859 554.4275916 905.30578644 554.42858163 896.63518429 554.4295795 C895.67716404 554.42969009 894.71914378 554.42980068 893.73209262 554.42991462 C838.82783149 554.43623928 783.92357055 554.44036367 729.01930904 554.43990606 C726.96434945 554.43989028 724.90938985 554.43987455 722.85443026 554.43985885 C713.57638569 554.43978547 704.29834113 554.4396973 695.02029656 554.43960497 C690.88295341 554.43956384 686.74561025 554.4395237 682.6082671 554.43948365 C680.53745136 554.43946326 678.46663561 554.43944224 676.39581987 554.43942059 C610.91799869 554.43874039 545.44018291 554.44605677 479.96236324 554.45996088 C463.46625425 554.46346189 446.97014525 554.46693135 430.47403622 554.47022527 C428.95044626 554.47052959 428.95044626 554.47052959 427.3960767 554.47084004 C396.09018459 554.47705508 364.78429293 554.48082062 333.47840023 554.48208326 C332.49550563 554.48212321 331.51261103 554.48216316 330.49993174 554.48220432 C308.92287624 554.4830576 287.34582077 554.48331879 265.76876525 554.48303395 C258.04803115 554.48293746 250.32729706 554.48288542 242.60656296 554.48285522 C240.68583259 554.4828473 238.76510223 554.4828371 236.84437187 554.48282459 C206.24017341 554.48264828 175.63597958 554.4883461 145.03178245 554.49697841 C114.20584509 554.50562906 83.37991413 554.507819 52.55397607 554.50121709 C48.2930085 554.50030481 44.03204093 554.49946153 39.77107334 554.49865907 C38.93581862 554.49849899 38.1005639 554.4983389 37.23999843 554.49817396 C24.02197202 554.49582223 10.8039567 554.50017558 -2.41406763 554.50733026 C-15.41597068 554.51422733 -28.41785738 554.51396975 -41.41976008 554.50613812 C-48.37295701 554.50214409 -55.32611815 554.50124589 -62.27931225 554.50959548 C-68.60830641 554.51688585 -74.93722854 554.51492415 -81.26621952 554.50567161 C-83.53820207 554.5039542 -85.8101903 554.50556586 -88.08216707 554.51097282 C-115.54561981 554.57193966 -143.84334408 552.486931 -165.2891016 533.25415033 C-166.04835941 532.57610346 -166.80761723 531.89805658 -167.58988285 531.19946283 C-179.69386601 519.76679303 -186.12743287 505.67610645 -186.68290043 489.01123041 C-186.7632496 477.18250543 -183.53205615 465.6156419 -180.98832035 454.14086908 C-180.43711289 451.59920257 -179.88755613 449.05717757 -179.33956242 446.51481622 C-178.35353365 441.94583319 -177.36360712 437.37777332 -176.36660677 432.81117344 C-173.99127292 421.92879793 -171.70170677 411.02900321 -169.42171574 400.12633127 C-168.27650789 394.65501189 -167.12453425 389.18511724 -165.97318363 383.71508783 C-165.50167526 381.47387937 -165.0301788 379.23266841 -164.55869389 376.99145502 C-153.13915888 322.71739694 -141.67624912 268.45261086 -130.15683842 214.1996612 C-127.18738688 200.21248902 -124.22430527 186.22399478 -121.26850033 172.23393387 C-118.71499585 160.14815008 -116.15661005 148.06340797 -113.59375858 135.97960275 C-112.00880406 128.50567192 -110.42786857 121.03091512 -108.85230809 113.55499822 C-107.65383144 107.87049939 -106.44796896 102.18758665 -105.23941708 96.50522226 C-104.74595493 94.17939355 -104.25486978 91.853059 -103.76638317 89.52618021 C-97.74214865 60.84594281 -88.35908882 37.05710294 -63.1016016 20.00415033 C-44.37557731 7.85271989 -22.47385842 -0.1118136 0 0 Z " fill="#003563" transform="translate(186.28910160064697,-0.2541503310203552)"/>
<path d="M0 0 C1.47063702 -0.00476599 1.47063702 -0.00476599 2.97098387 -0.00962826 C6.24657751 -0.01781969 9.52198736 -0.01184761 12.79758358 -0.00591189 C15.18372746 -0.00890961 17.56987038 -0.01278048 19.95601159 -0.01744422 C25.15525085 -0.02558688 30.35445449 -0.02753073 35.55369735 -0.02400994 C43.33727827 -0.01877208 51.12082126 -0.02505004 58.90439782 -0.03352342 C72.17131744 -0.04762102 85.43822515 -0.05219149 98.70515156 -0.05155188 C112.14927994 -0.05092989 125.59339676 -0.05461301 139.03752232 -0.06353194 C139.88679627 -0.06409172 140.73607023 -0.06465151 141.61107976 -0.06522826 C145.07007931 -0.06751991 148.52907884 -0.06983827 151.98807834 -0.07219155 C188.0718898 -0.09670022 224.15569654 -0.10685748 260.23951536 -0.11171871 C264.12354887 -0.11224241 268.00758237 -0.11276825 271.89161587 -0.11329538 C272.85544986 -0.11342444 273.81928385 -0.1135535 274.81232494 -0.11368647 C296.17122897 -0.11659216 317.53013168 -0.12275074 338.88903484 -0.12939269 C347.68405918 -0.13211616 356.47908356 -0.13474722 365.27410793 -0.13737833 C366.73177627 -0.1378147 366.73177627 -0.1378147 368.21889245 -0.13825989 C423.90797926 -0.15488285 479.59706543 -0.16673999 535.28615475 -0.1691733 C537.37028074 -0.16926793 539.45440674 -0.16936294 541.53853273 -0.16945833 C550.94817655 -0.16988608 560.35782037 -0.17029145 569.76746419 -0.17069669 C573.96345677 -0.17087829 578.15944936 -0.17106318 582.35544194 -0.17124876 C584.45561215 -0.17134078 586.55578235 -0.17143118 588.65595256 -0.17151995 C655.06181399 -0.17433422 721.46764506 -0.19606126 787.87349606 -0.23291022 C837.39675483 -0.26038571 886.92000779 -0.28627041 936.4432745 -0.29285532 C937.44024646 -0.29298876 938.43721843 -0.2931222 939.46440166 -0.29325968 C961.35088218 -0.29613206 983.23736258 -0.29754924 1005.12384328 -0.29761789 C1012.95535465 -0.29765757 1020.78686603 -0.29781452 1028.6183774 -0.29803241 C1030.56665031 -0.29808605 1032.51492323 -0.29813417 1034.46319615 -0.29817673 C1065.50068679 -0.29892005 1096.53814748 -0.31458211 1127.57562876 -0.33778804 C1158.83915531 -0.36106003 1190.10264332 -0.36828272 1221.3661763 -0.35360717 C1225.6884728 -0.35157956 1230.01076936 -0.34972561 1234.33306599 -0.34797484 C1235.60396909 -0.34744975 1235.60396909 -0.34744975 1236.900547 -0.34691406 C1250.30376492 -0.34183198 1263.70691337 -0.35351415 1277.11011699 -0.37221939 C1290.29708874 -0.390272 1303.48396077 -0.39041572 1316.67093259 -0.37165707 C1324.39669045 -0.36119924 1332.12214982 -0.36429386 1339.84788073 -0.38777583 C1345.59316596 -0.40369808 1351.33817067 -0.39334914 1357.08343103 -0.3730322 C1359.3860989 -0.36889035 1361.68880131 -0.37304325 1363.99143223 -0.38672988 C1389.14188878 -0.52626838 1410.99677246 4.99165587 1430.7108984 21.25415033 C1431.35285152 21.78266596 1431.99480465 22.31118158 1432.6562109 22.85571283 C1442.60717144 31.91421054 1449.57750626 45.8364099 1450.25519466 59.29339594 C1450.27603054 61.37755252 1450.26804907 63.46215843 1450.23409176 65.54614252 C1450.22291537 66.67333074 1450.21173899 67.80051897 1450.20022392 68.96186441 C1449.92861196 80.48728992 1447.85972542 91.36961756 1445.33980465 102.58227533 C1444.86876919 104.77292586 1444.40017278 106.96410199 1443.93378353 109.1557464 C1442.93373042 113.83074347 1441.9173796 118.50176072 1440.88741207 123.17025751 C1439.22574421 130.70271436 1437.60176234 138.2430234 1435.98238277 145.78466791 C1433.84780109 155.71262324 1431.7014078 165.63791976 1429.54417205 175.56097609 C1426.20453508 190.92599595 1422.92412593 206.303163 1419.67574215 221.68774408 C1419.30868979 223.42569081 1419.30868979 223.42569081 1418.93422222 225.19874758 C1417.9413845 229.90035035 1416.94884292 234.60201544 1415.95686436 239.30379957 C1413.42363956 251.30938212 1410.87771233 263.31226138 1408.33107281 275.31500429 C1406.97595898 281.70217846 1405.62138445 288.08946696 1404.26705074 294.47680658 C1404.12727283 295.13602645 1403.98749491 295.79524632 1403.8434813 296.47444254 C1400.51789299 312.15936486 1397.19809493 327.84551248 1393.87819326 343.53163922 C1392.59910281 349.57508261 1391.31974883 355.61847017 1390.04021358 361.6618194 C1389.76934529 362.94115298 1389.76934529 362.94115298 1389.49300492 364.24633169 C1388.58290002 368.54478093 1387.67276009 372.84322274 1386.76259708 377.14165968 C1384.80370804 386.39314753 1382.84560004 395.64480003 1380.88847333 404.89666086 C1379.54273597 411.25792795 1378.1959703 417.61897682 1376.84846514 423.97986966 C1376.06851891 427.66176165 1375.28899587 431.34374175 1374.51071262 435.02598566 C1372.85324489 442.86664608 1371.18689068 450.70530131 1369.50570202 458.5409202 C1368.96832092 461.05150223 1368.43397531 463.56273562 1367.9024229 466.0745582 C1367.12136838 469.76039601 1366.3289729 473.44362965 1365.53389645 477.12646478 C1365.30596055 478.21313283 1365.07802465 479.29980087 1364.84318161 480.41939825 C1361.85961536 494.0902255 1356.33858666 505.98806697 1346.7108984 516.25415033 C1345.88847652 517.15520502 1345.06605465 518.05625971 1344.2187109 518.98461908 C1324.05933219 540.16657498 1293.57239331 553.2071702 1264.36632543 554.34553472 C1261.84239835 554.3817363 1259.32031141 554.38715494 1256.79613304 554.38065016 C1255.34979041 554.38293998 1255.34979041 554.38293998 1253.87422874 554.38527607 C1250.64182685 554.38917419 1247.40947177 554.38596067 1244.17706966 554.38278478 C1241.82676102 554.38413142 1239.4764526 554.3859153 1237.12614459 554.38809702 C1231.32368769 554.3923374 1225.521244 554.39192064 1219.71878633 554.38956998 C1212.71918081 554.38699946 1205.71958097 554.39026153 1198.71997624 554.39368978 C1185.63853279 554.39992504 1172.55709264 554.40139567 1159.47564793 554.40027231 C1146.21774152 554.39914813 1132.95983793 554.40018098 1119.70193195 554.40384477 C1118.44610388 554.40418925 1118.44610388 554.40418925 1117.16490554 554.40454069 C1113.75505798 554.40548233 1110.34521043 554.40643801 1106.93536289 554.40741188 C1071.35580501 554.41755871 1035.77624871 554.42061796 1000.19668955 554.42120399 C996.36635554 554.42126874 992.53602153 554.42133668 988.70568752 554.4214074 C987.27993947 554.42143291 987.27993947 554.42143291 985.82538844 554.42145893 C964.76592238 554.42186732 943.70645663 554.42405704 922.64699074 554.42656325 C913.97638859 554.4275916 905.30578644 554.42858163 896.63518429 554.4295795 C895.67716404 554.42969009 894.71914378 554.42980068 893.73209262 554.42991462 C838.82783149 554.43623928 783.92357055 554.44036367 729.01930904 554.43990606 C726.96434945 554.43989028 724.90938985 554.43987455 722.85443026 554.43985885 C713.57638569 554.43978547 704.29834113 554.4396973 695.02029656 554.43960497 C690.88295341 554.43956384 686.74561025 554.4395237 682.6082671 554.43948365 C680.53745136 554.43946326 678.46663561 554.43944224 676.39581987 554.43942059 C610.91799869 554.43874039 545.44018291 554.44605677 479.96236324 554.45996088 C463.46625425 554.46346189 446.97014525 554.46693135 430.47403622 554.47022527 C428.95044626 554.47052959 428.95044626 554.47052959 427.3960767 554.47084004 C396.09018459 554.47705508 364.78429293 554.48082062 333.47840023 554.48208326 C332.49550563 554.48212321 331.51261103 554.48216316 330.49993174 554.48220432 C308.92287624 554.4830576 287.34582077 554.48331879 265.76876525 554.48303395 C258.04803115 554.48293746 250.32729706 554.48288542 242.60656296 554.48285522 C240.68583259 554.4828473 238.76510223 554.4828371 236.84437187 554.48282459 C206.24017341 554.48264828 175.63597958 554.4883461 145.03178245 554.49697841 C114.20584509 554.50562906 83.37991413 554.507819 52.55397607 554.50121709 C48.2930085 554.50030481 44.03204093 554.49946153 39.77107334 554.49865907 C38.93581862 554.49849899 38.1005639 554.4983389 37.23999843 554.49817396 C24.02197202 554.49582223 10.8039567 554.50017558 -2.41406763 554.50733026 C-15.41597068 554.51422733 -28.41785738 554.51396975 -41.41976008 554.50613812 C-48.37295701 554.50214409 -55.32611815 554.50124589 -62.27931225 554.50959548 C-68.60830641 554.51688585 -74.93722854 554.51492415 -81.26621952 554.50567161 C-83.53820207 554.5039542 -85.8101903 554.50556586 -88.08216707 554.51097282 C-115.54561981 554.57193966 -143.84334408 552.486931 -165.2891016 533.25415033 C-166.04835941 532.57610346 -166.80761723 531.89805658 -167.58988285 531.19946283 C-179.69386601 519.76679303 -186.12743287 505.67610645 -186.68290043 489.01123041 C-186.7632496 477.18250543 -183.53205615 465.6156419 -180.98832035 454.14086908 C-180.43711289 451.59920257 -179.88755613 449.05717757 -179.33956242 446.51481622 C-178.35353365 441.94583319 -177.36360712 437.37777332 -176.36660677 432.81117344 C-173.99127292 421.92879793 -171.70170677 411.02900321 -169.42171574 400.12633127 C-168.27650789 394.65501189 -167.12453425 389.18511724 -165.97318363 383.71508783 C-165.50167526 381.47387937 -165.0301788 379.23266841 -164.55869389 376.99145502 C-153.13915888 322.71739694 -141.67624912 268.45261086 -130.15683842 214.1996612 C-127.18738688 200.21248902 -124.22430527 186.22399478 -121.26850033 172.23393387 C-118.71499585 160.14815008 -116.15661005 148.06340797 -113.59375858 135.97960275 C-112.00880406 128.50567192 -110.42786857 121.03091512 -108.85230809 113.55499822 C-107.65383144 107.87049939 -106.44796896 102.18758665 -105.23941708 96.50522226 C-104.74595493 94.17939355 -104.25486978 91.853059 -103.76638317 89.52618021 C-97.74214865 60.84594281 -88.35908882 37.05710294 -63.1016016 20.00415033 C-44.37557731 7.85271989 -22.47385842 -0.1118136 0 0 Z M-36.2891016 45.25415033 C-37.15921879 45.70532221 -38.02933598 46.15649408 -38.92582035 46.62133783 C-51.26645971 53.47940115 -60.34369383 63.00036086 -65.2891016 76.25415033 C-65.70377367 77.97207747 -66.07296825 79.7014513 -66.40238285 81.43774408 C-66.59590336 82.43684808 -66.78942387 83.43595209 -66.98880863 84.46533197 C-67.19103031 85.53001703 -67.39325199 86.59470209 -67.6016016 87.69165033 C-69.23647861 96.10177608 -70.97314172 104.47177795 -72.9141016 112.81665033 C-74.62986677 120.21060975 -76.12947693 127.59623172 -77.4766016 135.06665033 C-78.61263881 141.12551546 -80.0625276 147.11706024 -81.4531641 153.12133783 C-82.68610359 158.4838819 -83.8126132 163.8390783 -84.7891016 169.25415033 C-86.11381931 176.60031218 -87.76909254 183.85011123 -89.4531641 191.12133783 C-90.68610359 196.4838819 -91.8126132 201.8390783 -92.7891016 207.25415033 C-94.11381931 214.60031218 -95.76909254 221.85011123 -97.4531641 229.12133783 C-98.68610359 234.4838819 -99.8126132 239.8390783 -100.7891016 245.25415033 C-102.11381931 252.60031218 -103.76909254 259.85011123 -105.4531641 267.12133783 C-106.68610359 272.4838819 -107.8126132 277.8390783 -108.7891016 283.25415033 C-110.11381931 290.60031218 -111.76909254 297.85011123 -113.4531641 305.12133783 C-114.68610359 310.4838819 -115.8126132 315.8390783 -116.7891016 321.25415033 C-118.11381931 328.60031218 -119.76909254 335.85011123 -121.4531641 343.12133783 C-122.68610359 348.4838819 -123.8126132 353.8390783 -124.7891016 359.25415033 C-126.11381931 366.60031218 -127.76909254 373.85011123 -129.4531641 381.12133783 C-130.68610359 386.4838819 -131.8126132 391.8390783 -132.7891016 397.25415033 C-134.11381931 404.60031218 -135.76909254 411.85011123 -137.4531641 419.12133783 C-138.68610359 424.4838819 -139.8126132 429.8390783 -140.7891016 435.25415033 C-141.93978063 441.63518861 -143.32766236 447.93739544 -144.7891016 454.25415033 C-151.70997858 477.69602591 -151.70997858 477.69602591 -147.7266016 500.42211908 C-139.66098606 510.70139541 -128.6110802 515.80431262 -115.92703848 517.83525482 C-108.77309524 518.65900598 -101.5944656 518.52692239 -94.40374947 518.50583261 C-92.59788074 518.5079215 -90.79201286 518.51088594 -88.98614684 518.51464134 C-84.02791806 518.52241755 -79.06976735 518.51777575 -74.11153987 518.51108544 C-68.71570691 518.50600806 -63.31988584 518.51253346 -57.92405456 518.5175721 C-48.46845723 518.52479521 -39.01288274 518.5245765 -29.55728436 518.51947778 C-15.49647578 518.51191641 -1.43568649 518.51577845 12.62512195 518.5218944 C36.28128976 518.53181965 59.93744856 518.5321834 83.59361744 518.52674097 C84.31372381 518.52657538 85.03383019 518.52640979 85.77575796 518.52623918 C86.85765051 518.52599039 86.85765051 518.52599039 87.96139948 518.52573657 C109.93789331 518.52068959 131.91438343 518.51938771 153.89087772 518.52178186 C155.36270769 518.52193682 156.83453765 518.52209113 158.30636761 518.5222448 C164.22110122 518.52286574 170.13583484 518.52350307 176.05056845 518.52416433 C192.58464102 518.52599832 209.1187136 518.52713954 225.65278625 518.5277366 C226.78216126 518.52777754 226.78216126 518.52777754 227.93435193 518.52781931 C251.92469209 518.52863783 275.91503096 518.52638425 299.90537071 518.52203745 C300.68344586 518.52189695 301.461521 518.52175645 302.26317418 518.52161169 C314.89847902 518.51932182 327.53378383 518.51688288 340.16908864 518.51443135 C390.27913883 518.50471922 440.38917833 518.50516909 490.49922848 518.51489252 C503.12697982 518.51733492 515.75473116 518.51975703 528.38248253 518.52203745 C529.1600304 518.52217834 529.93757828 518.52231924 530.73868821 518.52246441 C554.70319811 518.52677716 578.66770713 518.52860525 602.63221741 518.5277366 C603.38459415 518.52770944 604.1369709 518.52768227 604.91214694 518.52765428 C621.42848769 518.5270293 637.94482834 518.52576199 654.46116899 518.5239156 C660.37091944 518.52325732 666.28066989 518.52263116 672.19042035 518.52201418 C673.66059975 518.5218594 675.13077914 518.52170194 676.60095854 518.52154178 C698.57063873 518.5191551 720.54031474 518.52118651 742.50999441 518.52623918 C743.23001799 518.52640477 743.95004157 518.52657036 744.69188404 518.52674097 C745.76992524 518.52698902 745.76992524 518.52698902 746.86974504 518.52724207 C771.11527738 518.53275973 795.36079811 518.53072312 819.60632902 518.52017948 C833.58535848 518.51430111 847.56436245 518.51393193 861.54339126 518.52147183 C870.87758914 518.52595157 880.21176656 518.52317453 889.5459614 518.51446229 C894.86636894 518.50969882 900.18672579 518.5080904 905.50713175 518.51527426 C910.34985094 518.52174649 915.1924746 518.51897319 920.03518687 518.50891294 C921.77361723 518.50690322 923.51205555 518.50821867 925.25047958 518.51332481 C937.74432815 518.54740989 950.08188169 518.24324841 961.8358984 513.50415033 C962.50838619 513.24029535 963.18087399 512.97644037 963.8737402 512.70458978 C978.84134473 506.68930384 992.70101866 497.93602769 999.8983984 483.00415033 C1004.36204063 472.119449 1006.02027613 460.11900504 1008.3827734 448.64477533 C1009.83919102 441.59468293 1011.37066234 434.56169039 1012.92330074 427.5322265 C1015.13868498 417.44481862 1017.10979988 407.30871555 1019.10542965 397.17602533 C1021.72729586 383.89043437 1024.47323585 370.64973719 1027.46016598 357.44067377 C1029.34023279 349.06933239 1031.05320305 340.67213455 1032.7108984 332.25415033 C1034.80689813 321.61040172 1037.0681055 311.0183752 1039.4608984 300.43774408 C1041.34056649 292.06734713 1043.05339768 283.67114619 1044.7108984 275.25415033 C1046.80689813 264.61040172 1049.0681055 254.0183752 1051.4608984 243.43774408 C1053.34056649 235.06734713 1055.05339768 226.67114619 1056.7108984 218.25415033 C1058.80689813 207.61040172 1061.0681055 197.0183752 1063.4608984 186.43774408 C1065.34056649 178.06734713 1067.05339768 169.67114619 1068.7108984 161.25415033 C1070.80559154 150.61703675 1073.06496463 140.03150583 1075.45650387 129.45751947 C1077.66551098 119.62100873 1079.64956429 109.74495671 1081.58833981 99.85229486 C1082.80623902 93.66367693 1084.08590334 87.50751905 1085.55220699 81.37304682 C1089.06131129 66.96566145 1089.06131129 66.96566145 1085.15230465 53.12524408 C1079.15471705 45.33975774 1071.90322978 41.3474081 1062.7108984 38.25415033 C1062.08875453 38.00637464 1061.46661066 37.75859895 1060.82561395 37.50331491 C1052.38309136 34.47158839 1043.82493055 34.83679943 1034.98911095 34.8738336 C1033.17654947 34.8703981 1031.36399009 34.86564997 1029.55143508 34.85971263 C1024.56524642 34.84719659 1019.57922872 34.85335593 1014.59303925 34.86254631 C1009.17034019 34.86925026 1003.74767073 34.8585929 998.32497793 34.85015047 C988.81899484 34.8377675 979.31306109 34.83657817 969.80707264 34.8427009 C955.67109634 34.85178147 941.53516578 34.84376828 927.399193 34.83240966 C901.41843362 34.8121524 875.437696 34.81068496 849.45693084 34.81606028 C845.77591616 34.81681601 842.09490148 34.81754362 838.41388679 34.81824225 C837.68273247 34.81838134 836.95157815 34.81852043 836.19826764 34.81866374 C819.99183343 34.82161654 803.78540198 34.81860271 787.57896827 34.81434596 C785.36063949 34.8137638 783.1423107 34.81319496 780.9239819 34.81263033 C774.97726892 34.81111536 769.03055594 34.80958845 763.08384297 34.80803732 C721.56957107 34.79728043 680.05530171 34.79257881 638.54102898 34.80050749 C637.36722207 34.80072994 637.36722207 34.80072994 636.1697019 34.8009569 C627.4436683 34.80261588 618.71763473 34.80436546 609.99160116 34.80614991 C609.2037767 34.80631093 608.41595225 34.80647196 607.60425432 34.80663786 C602.82521946 34.80761533 602.82521946 34.80761533 598.0461846 34.80859905 C547.66333185 34.81898845 497.28051404 34.81122818 446.89766598 34.7875976 C434.20456829 34.78165408 421.51147058 34.77576247 408.81837273 34.77018827 C408.03678608 34.7698445 407.25519944 34.76950073 406.44992835 34.76914654 C382.35601536 34.75861676 358.26210529 34.75302509 334.16819 34.75263113 C333.41159756 34.75261835 332.65500511 34.75260556 331.87548562 34.75259239 C315.26541692 34.75236408 298.65534848 34.75337035 282.04527992 34.75550145 C276.10167821 34.7562562 270.15807648 34.75693441 264.21447475 34.7575816 C262.73588271 34.75774429 261.25729066 34.75791196 259.77869861 34.75808461 C236.2312613 34.76080437 212.68384521 34.75225755 189.13641246 34.73823051 C164.75475436 34.72381306 140.37313782 34.72428797 115.99148094 34.74160523 C101.93773405 34.7511759 87.8840906 34.74971766 73.8303506 34.73237054 C64.44116941 34.72189027 55.05206709 34.72596856 45.66289368 34.74185058 C40.31428616 34.75049161 34.96588148 34.75288423 29.61728429 34.73758126 C24.74421995 34.7237706 19.87153151 34.72861482 14.99848888 34.74786645 C13.25359078 34.75157903 11.50866186 34.74870951 9.76379174 34.73815336 C-6.81541872 34.64482448 -21.5251032 37.38792361 -36.2891016 45.25415033 Z " fill="#FDFDFD" transform="translate(186.28910160064697,-0.2541503310203552)"/>
<path d="M0 0 C32.06048181 -0.04565331 64.12095435 -0.08103387 96.18146109 -0.10213066 C99.96895588 -0.10463199 103.75645061 -0.10722064 107.54394531 -0.10986328 C108.29794775 -0.1103879 109.05195018 -0.11091252 109.82880117 -0.11145304 C122.02762424 -0.12014886 134.2264284 -0.1359143 146.42524026 -0.15430559 C158.94808479 -0.17302754 171.47091944 -0.18412158 183.99377739 -0.18817699 C191.71720219 -0.19091729 199.44057353 -0.19956342 207.16398187 -0.21583293 C213.0924456 -0.22768304 219.02088209 -0.22890555 224.94935799 -0.22621536 C227.37689734 -0.22676484 229.80443875 -0.23073321 232.23196602 -0.23841095 C235.55224987 -0.24839575 238.87230708 -0.24595587 242.19259644 -0.24050903 C243.14787794 -0.24633472 244.10315944 -0.2521604 245.08738887 -0.25816262 C258.53168484 -0.19875747 273.30977948 3.26608504 283.0625 13.07421875 C288.63398843 19.09341607 291.48446774 23.57451846 291.32421875 31.8828125 C290.76788546 37.23165545 289.37449348 42.3850224 288.0703125 47.58984375 C287.07331517 51.5979127 286.28829301 55.62055642 285.5625 59.6875 C284.40266637 66.17310027 282.9872421 72.58198252 281.5 79 C280.03700179 85.31634276 278.65066309 91.61905014 277.5 98 C276.17528229 105.34616184 274.52000906 112.5959609 272.8359375 119.8671875 C271.60299801 125.22973157 270.4764884 130.58492797 269.5 136 C268.17528229 143.34616184 266.52000906 150.5959609 264.8359375 157.8671875 C263.60299801 163.22973157 262.4764884 168.58492797 261.5 174 C260.17528229 181.34616184 258.52000906 188.5959609 256.8359375 195.8671875 C255.60299801 201.22973157 254.4764884 206.58492797 253.5 212 C252.17528229 219.34616184 250.52000906 226.5959609 248.8359375 233.8671875 C247.60299801 239.22973157 246.4764884 244.58492797 245.5 250 C244.17528229 257.34616184 242.52000906 264.5959609 240.8359375 271.8671875 C239.60299801 277.22973157 238.4764884 282.58492797 237.5 288 C236.17528229 295.34616184 234.52000906 302.5959609 232.8359375 309.8671875 C231.60299801 315.22973157 230.4764884 320.58492797 229.5 326 C228.38559127 332.17307305 227.04803731 338.26612734 225.625 344.375 C223.76788864 352.36530151 222.12951151 360.37366275 220.625 368.4375 C218.6792719 378.84020188 216.42840494 389.15661505 214.04556274 399.46615601 C211.67892879 409.71805874 209.56765634 419.99646969 207.7734375 430.36523438 C205.75493245 441.54068022 202.61463143 450.4559596 195 459 C194.51144531 459.59296875 194.02289062 460.1859375 193.51953125 460.796875 C181.92362263 473.79383171 160.73873821 481.89260185 143.57527053 483.18218255 C140.93299059 483.24991353 138.29762327 483.25718825 135.65452576 483.24050903 C134.14841086 483.24307231 134.14841086 483.24307231 132.61186939 483.24568737 C129.26778358 483.24896569 125.92390113 483.23800588 122.57983398 483.22705078 C120.1745962 483.22648631 117.76935807 483.22680393 115.36412048 483.22793579 C109.52392028 483.22844947 103.68378602 483.2197994 97.84360086 483.20706047 C91.04424933 483.19272742 84.24490699 483.18976701 77.44554246 483.18748413 C65.3213471 483.18311371 53.19717875 483.16982236 41.07299805 483.15087891 C29.29988744 483.13250319 17.52678418 483.11835497 5.75366211 483.10986328 C4.6639685 483.10907511 4.6639685 483.10907511 3.55226087 483.10827102 C-0.09241676 483.10566082 -3.73709444 483.10313344 -7.38177216 483.10064721 C-37.58786744 483.07993504 -67.79392996 483.044578 -98 483 C-97.59193619 482.45843765 -97.18387238 481.91687531 -96.76344299 481.35890198 C-96.22606003 480.64435349 -95.68867706 479.92980499 -95.13500977 479.19360352 C-94.33728905 478.13375999 -94.33728905 478.13375999 -93.52345276 477.05250549 C-81.55356054 460.92580292 -78.0939033 443.51636858 -74.4296875 424.20703125 C-73.3577494 418.62412848 -72.07457459 413.13296631 -70.65625 407.62915039 C-69.80180305 404.20595872 -69.16753703 400.78864442 -68.5625 397.3125 C-67.31928279 390.37736399 -65.75782196 383.55654855 -64.0625 376.71875 C-63.11342858 372.70175002 -62.36708546 368.65288875 -61.625 364.59375 C-59.84637092 354.90421201 -57.66172045 345.31406412 -55.47949219 335.70898438 C-53.49576329 326.95965655 -51.61935762 318.21277097 -50.00585938 309.38708496 C-48.91274205 303.43118086 -47.51953119 297.59544246 -46.0625 291.71875 C-45.11342858 287.70175002 -44.36708546 283.65288875 -43.625 279.59375 C-41.84637092 269.90421201 -39.66172045 260.31406412 -37.47949219 250.70898438 C-35.53996726 242.15462018 -33.70139876 233.60492708 -32.12849426 224.9752655 C-30.83714514 217.96546315 -29.27416029 211.02157979 -27.69876099 204.07104492 C-23.54074096 185.70258876 -19.69614278 167.27695874 -15.94824219 148.82080078 C-14.77980106 143.06766559 -13.60961261 137.31488833 -12.4375 131.5625 C-12.24153229 130.60066803 -12.04556458 129.63883606 -11.84365845 128.64785767 C-9.23969367 115.88350184 -6.53054783 103.15599902 -3.56933594 90.46923828 C-0.65265697 77.81945652 2.08472947 65.13023105 4.375 52.3515625 C4.89615313 49.55687886 5.52240757 46.82448108 6.1875 44.0625 C9.10126752 29.41958358 7.02672959 15.0842551 0 2 C0 1.34 0 0.68 0 0 Z " fill="#DA251D" transform="translate(1310,35)"/>
<path d="M0 0 C1.12495377 -0.00571014 2.24990753 -0.01142029 3.40895081 -0.01730347 C4.65491028 -0.01842133 5.90086975 -0.01953918 7.18458557 -0.02069092 C9.1411483 -0.02813828 9.1411483 -0.02813828 11.13723755 -0.03573608 C14.73385017 -0.04890285 18.33044407 -0.05531725 21.92707705 -0.05974674 C24.18448113 -0.06268011 26.44188016 -0.06678617 28.69928169 -0.07125092 C35.79000145 -0.08495788 42.88070959 -0.09459998 49.97144169 -0.09845281 C58.09936862 -0.10289462 66.2271241 -0.12024528 74.35499901 -0.1494534 C80.6645062 -0.17131929 86.97396619 -0.18117067 93.28351074 -0.18249393 C97.03581934 -0.18352753 100.78796759 -0.18911367 104.54023552 -0.20731354 C153.85110712 -0.43262199 153.85110712 -0.43262199 171.81568909 7.14044189 C172.9565094 7.61094971 174.09732971 8.08145752 175.27272034 8.56622314 C190.93929662 15.67813589 203.13870046 28.2209152 209.81568909 44.14044189 C212.44090963 51.74725116 213.3357708 58.87026234 213.25318909 66.89044189 C213.24489075 67.93957764 213.23659241 68.98871338 213.2280426 70.06964111 C212.84698207 87.69063933 206.60090332 103.91424077 194.81568909 117.14044189 C194.24592346 117.80302002 193.67615784 118.46559814 193.08912659 119.14825439 C178.69134701 134.77137691 157.29425146 142.14958657 136.81568909 145.14044189 C137.71029846 145.38278564 138.60490784 145.62512939 139.52662659 145.87481689 C159.2507274 151.34205166 176.40161943 159.73723925 187.24147034 178.03106689 C195.77248433 194.88140719 196.2464329 213.5900132 191.01490784 231.59747314 C189.21151141 236.92542286 187.23137917 242.05965419 184.81568909 247.14044189 C184.4096344 248.02860596 184.00357971 248.91677002 183.58522034 249.83184814 C172.34021635 272.48673888 150.17595224 287.5704527 126.75318909 295.51544189 C99.28580055 304.23982838 69.74542567 303.45323033 41.20133376 303.34322977 C37.29905577 303.33043646 33.39677205 303.32953005 29.49447632 303.32717896 C22.15722404 303.32104588 14.82003379 303.30475009 7.48280841 303.28447998 C-0.89254478 303.26186097 -9.26790147 303.25106328 -17.64327776 303.24108911 C-34.82365759 303.22037307 -52.00397763 303.18536249 -69.18431091 303.14044189 C-69.04252992 301.41853931 -68.89642218 299.69699273 -68.74856567 297.9756012 C-68.62723786 296.53751586 -68.62723786 296.53751586 -68.50345898 295.0703783 C-67.9903901 290.36015336 -66.95136475 285.79607267 -65.89134216 281.18341064 C-65.66487 280.17056503 -65.43839783 279.15771942 -65.20506287 278.11418152 C-64.72328684 275.96158425 -64.23857481 273.80964224 -63.75111389 271.6583252 C-62.47443495 266.02155808 -61.22021068 260.37980262 -59.96556091 254.73809814 C-59.71917374 253.63206238 -59.47278656 252.52602661 -59.21893311 251.38647461 C-57.36475256 243.03288681 -55.62906966 234.665129 -53.99681091 226.26544189 C-51.78974565 214.94044321 -49.33254703 203.68638543 -46.79774475 192.43151855 C-44.12020027 180.52802647 -41.60582818 168.59851154 -39.18431091 156.64044189 C-36.47276041 143.25385257 -33.61544797 129.90943345 -30.6169281 116.58428955 C-28.03341251 105.09391585 -25.59991379 93.58043309 -23.25779724 82.03860474 C-20.85319785 70.20413306 -18.26834826 58.41635407 -15.61372375 46.63565063 C-12.87803632 34.48155025 -10.35206969 22.2971451 -7.9985199 10.06329346 C-7.77237 8.89894775 -7.54622009 7.73460205 -7.31321716 6.53497314 C-7.11800476 5.51250488 -6.92279236 4.49003662 -6.72166443 3.43658447 C-5.74501235 -0.7367062 -3.96696403 0.01200484 0 0 Z " fill="#FEFEFE" transform="translate(265.18431091308594,127.85955810546875)"/>
<path d="M0 0 C2.58837587 -0.16742603 5.1339466 -0.1657397 7.72742081 -0.11580467 C8.71296951 -0.11653481 9.69851822 -0.11726494 10.71393204 -0.1180172 C13.9772042 -0.11452888 17.23905568 -0.07560764 20.50207901 -0.03645897 C22.76222834 -0.02713531 25.02238777 -0.02001709 27.28255081 -0.01502037 C33.23568929 0.00408436 39.18821929 0.05321593 45.1411171 0.10849953 C51.21382795 0.15961662 57.28663698 0.1824776 63.35950089 0.20768166 C75.27838825 0.26133063 87.19682369 0.34668607 99.11536026 0.45182228 C100.80959814 10.00609878 102.49330542 19.56133413 104.09582901 29.13150978 C104.26933884 30.1657357 104.44284866 31.19996162 104.62161636 32.26552773 C105.18337565 35.61906939 105.74340146 38.9728961 106.30286026 42.32682228 C106.49955307 43.50497505 106.69624588 44.68312782 106.89889908 45.89698219 C109.83760802 63.52200602 112.66324081 81.16180862 115.40158463 98.81894875 C118.51683927 118.88381543 121.80537093 138.91840068 125.11536026 158.95182228 C128.93799795 182.0928728 132.7057757 205.23989626 136.30090714 228.41764259 C136.60877347 230.40170392 136.91671582 232.38575346 137.22473526 234.36979103 C137.45096573 235.82725243 137.45096573 235.82725243 137.68176651 237.31415749 C138.8835341 245.02795566 140.12728658 252.73459258 141.38098526 260.44010353 C141.75828335 262.76635363 142.13556222 265.09260685 142.5128212 267.4188633 C143.05710491 270.77357526 143.60319058 274.12793584 144.15552139 277.48133278 C144.65732967 280.52803008 145.15255783 283.57573422 145.64661026 286.62369728 C145.79616165 287.51909721 145.94571304 288.41449715 146.0997963 289.33703041 C146.30182663 290.59413071 146.30182663 290.59413071 146.50793839 291.87662697 C146.62592789 292.59550087 146.74391739 293.31437477 146.86548233 294.05503273 C147.19039172 297.17151219 147.11536026 300.31845184 147.11536026 303.45182228 C120.71536026 303.45182228 94.31536026 303.45182228 67.11536026 303.45182228 C64.27392566 282.14106275 61.6273716 260.80391869 59.11536026 239.45182228 C20.17536026 239.45182228 -18.76463974 239.45182228 -58.88463974 239.45182228 C-67.96197873 255.65906051 -67.96197873 255.65906051 -77.03307724 271.86979103 C-77.58350693 272.85399025 -78.13393661 273.83818947 -78.70104599 274.85221291 C-79.76399644 276.75300274 -80.82647669 278.65405558 -81.88854599 280.55533791 C-86.17410715 288.21539674 -90.52926834 295.82992232 -94.88463974 303.45182228 C-122.93463974 303.45182228 -150.98463974 303.45182228 -179.88463974 303.45182228 C-178.42655753 299.80661676 -177.04361233 296.82108857 -175.08385849 293.48697853 C-174.52593613 292.53411964 -173.96801376 291.58126076 -173.39318466 290.59952736 C-172.49176743 289.07235085 -172.49176743 289.07235085 -171.57213974 287.51432228 C-170.94476913 286.44528664 -170.31739853 285.37625099 -169.67101669 284.27482033 C-167.74635548 280.99803443 -165.81650296 277.72436652 -163.88463974 274.45182228 C-163.33807724 273.52563087 -162.79151474 272.59943947 -162.22838974 271.64518166 C-160.15040561 268.12559604 -158.07107035 264.60682049 -155.98839951 261.09000587 C-152.91808198 255.9034165 -149.86070137 250.70948321 -146.81823349 245.50650978 C-146.46768402 244.90709068 -146.11713455 244.30767159 -145.75596237 243.69008827 C-145.40179749 243.08447563 -145.0476326 242.47886299 -144.68273544 241.85489845 C-138.04135873 230.4985727 -131.34225885 219.18147 -124.55358505 207.9122715 C-117.90957397 196.86524304 -111.41080489 185.7341482 -104.90319443 174.60650063 C-100.11211548 166.41733025 -95.2778623 158.25369166 -90.44518661 150.08902931 C-87.75607421 145.54463129 -85.07058104 140.99809502 -82.38463974 136.45182228 C-81.30132285 134.61847923 -80.21798953 132.78514589 -79.13463974 130.95182228 C-78.59838974 130.04432228 -78.06213974 129.13682228 -77.50963974 128.20182228 C-59.63463974 97.95182228 -59.63463974 97.95182228 -58.0106163 95.20353127 C-56.923962 93.36454017 -55.83737378 91.52551003 -54.75085068 89.68644142 C-52.09386036 85.18935413 -49.43584191 80.69288232 -46.77526474 76.19791603 C-42.10630617 68.30709875 -37.44289747 60.41329591 -32.81432724 52.49869728 C-24.07773712 37.561352 -15.26884768 22.67309588 -6.33239365 7.85416603 C-4.80962793 5.48993895 -4.80962793 5.48993895 -3.89490891 2.83715248 C-1.88463974 0.45182228 -1.88463974 0.45182228 0 0 Z " fill="#FEFEFE" transform="translate(930.8846397399902,127.54817771911621)"/>
<path d="M0 0 C1.102229 0.00432037 2.20445801 0.00864075 3.34008789 0.01309204 C19.19963705 0.08601513 34.67348828 0.54200453 50.3125 3.375 C51.36115234 3.55192383 52.40980469 3.72884766 53.49023438 3.91113281 C71.56105619 6.97228139 88.96273579 11.5090222 106.3125 17.375 C105.10270403 23.28513671 103.58530285 28.96613575 101.6328125 34.671875 C101.25175858 35.805112 101.25175858 35.805112 100.86300659 36.96124268 C100.05882642 39.35064642 99.24854527 41.73791876 98.4375 44.125 C97.37523427 47.26482846 96.3156761 50.4055608 95.2578125 53.546875 C94.87523285 54.68159241 94.87523285 54.68159241 94.48492432 55.8392334 C92.5871962 61.49291057 90.79527559 67.17100454 89.06982422 72.87988281 C88.51128417 74.72007599 87.92063468 76.55059595 87.3125 78.375 C84.35464482 77.25503542 81.50220824 76.00324589 78.66796875 74.60546875 C45.4540144 58.24282964 5.55398987 54.75140482 -29.875 66.125 C-42.85264263 70.57253471 -54.0061033 76.68954312 -64.6875 85.375 C-65.77998047 86.21998047 -65.77998047 86.21998047 -66.89453125 87.08203125 C-86.73005218 103.1617139 -96.97691672 130.64251826 -99.6875 155.375 C-100.15424001 161.70315105 -100.26170767 168.03200931 -100.3125 174.375 C-100.33204742 175.5382077 -100.33204742 175.5382077 -100.35198975 176.72491455 C-100.60538273 195.97819282 -94.97761862 213.9781804 -82.22265625 228.77734375 C-66.7749438 244.60589348 -44.2083529 253.07294843 -22.24609375 253.54296875 C4.45063212 253.74310718 29.22631662 248.47926786 53.48461914 237.12695312 C55.3125 236.375 55.3125 236.375 57.3125 236.375 C55.89463015 251.6597172 54.32585771 266.92496681 52.6875 282.1875 C52.45561889 284.356108 52.22384754 286.52472775 51.9921875 288.69335938 C51.43355043 293.92070823 50.87358353 299.1479132 50.3125 304.375 C-1.38590015 321.86775809 -64.88119348 323.30860214 -114.69995117 299.47753906 C-121.07305515 296.31083515 -126.95885016 292.60091705 -132.6875 288.375 C-133.53570313 287.74980469 -134.38390625 287.12460937 -135.2578125 286.48046875 C-157.34528668 269.4821148 -171.02473544 246.92239498 -178.6875 220.375 C-179.00460937 219.28316406 -179.32171875 218.19132813 -179.6484375 217.06640625 C-183.3995691 203.08322757 -184.09133299 189.2577734 -184.0625 174.875 C-184.06295319 173.9943689 -184.06340637 173.11373779 -184.06387329 172.2064209 C-184.04438535 159.30101086 -183.36121482 146.94568434 -180.19140625 134.37451172 C-179.74826129 132.61610223 -179.36892766 130.84187063 -179 129.06640625 C-175.67745684 113.76194184 -169.18233185 99.05803332 -161.6875 85.375 C-161.33961426 84.73578613 -160.99172852 84.09657227 -160.63330078 83.43798828 C-155.30814449 73.78446697 -149.01886631 65.58074944 -141.6875 57.375 C-141.07132813 56.63765625 -140.45515625 55.9003125 -139.8203125 55.140625 C-127.46229106 40.3583027 -111.41292173 29.28317807 -94.50537109 20.33886719 C-92.87586013 19.47487185 -91.25926116 18.58662683 -89.64453125 17.6953125 C-62.52082839 3.25427898 -30.20152479 -0.22458157 0 0 Z " fill="#FDFEFE" transform="translate(674.6875,121.625)"/>
<path d="M0 0 C6.82759188 -0.12829663 13.65486562 -0.21496823 20.48339844 -0.2746582 C22.79927179 -0.29957908 25.11506836 -0.33352854 27.43066406 -0.37719727 C59.02134087 -0.95740633 59.02134087 -0.95740633 71.75 9.1875 C79.12983941 16.77854694 80.59531832 24.33384073 80.47363281 34.59936523 C79.97802511 46.61252302 75.56951876 55.91703582 66.875 64.125 C57.5906617 71.56463353 47.47236681 74.19199661 36 76 C35.15856445 76.17418457 34.31712891 76.34836914 33.45019531 76.52783203 C28.7381081 77.1726931 24.10162886 77.12279549 19.3515625 77.09765625 C18.33903412 77.0962413 17.32650574 77.09482635 16.28329468 77.09336853 C13.06383249 77.08779143 9.84444101 77.07524312 6.625 77.0625 C4.43619892 77.05748204 2.24739675 77.05291965 0.05859375 77.04882812 C-5.29429477 77.0378295 -10.64714233 77.0211142 -16 77 C-14.8178469 69.52735473 -13.43276095 62.19721018 -11.58789062 54.86328125 C-10.42489544 50.10936468 -9.48457368 45.32850679 -8.6015625 40.515625 C-7.03019046 31.96658584 -5.19452218 23.4852147 -3.3125 15 C-2.98870372 13.53130037 -2.66513518 12.06255052 -2.34179688 10.59375 C-1.56380461 7.061921 -0.78279492 3.53076807 0 0 Z " fill="#023664" transform="translate(301,299)"/>
<path d="M0 0 C2.01096289 3.01644433 2.32855387 4.11153137 2.69848633 7.57104492 C2.80250259 8.50425064 2.90651886 9.43745636 3.01368713 10.39894104 C3.11874069 11.41584518 3.22379425 12.43274933 3.33203125 13.48046875 C3.44888779 14.54478622 3.56574432 15.6091037 3.68614197 16.70567322 C3.93752461 19.00158348 4.18527716 21.29789349 4.42980957 23.59454346 C5.07361631 29.63903648 5.74319035 35.68068243 6.41015625 41.72265625 C6.5434433 42.93628845 6.67673035 44.14992065 6.8140564 45.40032959 C8.19183511 57.88217279 9.74749508 70.33913247 11.35083008 82.79370117 C12.35250568 90.60245914 13.29601883 98.41471728 14.140625 106.2421875 C14.27074982 107.42278244 14.27074982 107.42278244 14.40350342 108.62722778 C14.48207581 109.37269867 14.56064819 110.11816956 14.64160156 110.88623047 C14.71106995 111.53703583 14.78053833 112.18784119 14.85211182 112.85836792 C15.03910142 115.56624445 15 118.28567496 15 121 C-11.73 121 -38.46 121 -66 121 C-56.8514049 102.7028098 -56.8514049 102.7028098 -53.4375 96.6875 C-52.58441486 95.16679037 -51.73156612 93.64594812 -50.87890625 92.125 C-50.19272217 90.90490234 -50.19272217 90.90490234 -49.49267578 89.66015625 C-46.60376696 84.51171815 -43.74123792 79.34858223 -40.875 74.1875 C-40.23933105 73.0435376 -39.60366211 71.8995752 -38.94873047 70.72094727 C-32.63969635 59.36419281 -26.36442277 47.98888143 -20.09355164 36.61102295 C-17.55409044 32.00382259 -15.01184895 27.39816197 -12.46875 22.79296875 C-11.35910029 20.78319404 -10.24947851 18.77340391 -9.13986206 16.76361084 C-8.42589638 15.47061358 -7.7118069 14.17768468 -6.99758911 12.88482666 C-6.00975097 11.09659396 -5.02244053 9.30806979 -4.03515625 7.51953125 C-3.4719165 6.49964111 -2.90867676 5.47975098 -2.32836914 4.42895508 C-1.5280753 2.96559844 -0.74590655 1.49181309 0 0 Z " fill="#013664" transform="translate(969,188)"/>
<path d="M0 0 C6.33123805 -0.10231507 12.66225908 -0.17184482 18.99414062 -0.21972656 C21.14331021 -0.23970984 23.29242636 -0.26690594 25.44140625 -0.30175781 C53.31944994 -0.74221018 53.31944994 -0.74221018 64.24609375 8.22265625 C71.85849353 15.93678075 73.33154914 22.9301682 73.38720703 33.42724609 C73.26362061 39.94399979 71.81289242 44.63970031 68 50 C67.56558594 50.64195312 67.13117188 51.28390625 66.68359375 51.9453125 C58.74760481 62.39097315 45.30154625 66.47289961 32.89501953 68.42431641 C24.12105939 69.59205365 15.26762707 69.31156028 6.4375 69.1875 C4.53972434 69.1724035 2.64193686 69.15872401 0.74414062 69.14648438 C-3.83753972 69.11392354 -8.41863328 69.06242516 -13 69 C-12.49858227 61.02854172 -11.14997932 53.51297144 -9.3125 45.75 C-6.87246153 35.13921118 -4.66959603 24.5054006 -2.625 13.8125 C-2.49203522 13.11789673 -2.35907043 12.42329346 -2.22207642 11.7076416 C-1.47620109 7.80606855 -0.7356778 3.90350799 0 0 Z " fill="#013663" transform="translate(326,180)"/>
</svg>
